<svg t="1599801028545" class="icon" viewBox="0 0 1024 1024" version="1.1" xmlns="http://www.w3.org/2000/svg" p-id="4099" width="200" height="200"><path d="M1007.4 75.8c-9.2-6.3-20.9-7.8-31.3-3.9L588.5 268.2 400 11.7c-0.9-0.9-2-1.2-3-2-0.7-0.6-1-1.4-1.7-2-0.9-0.6-2-0.6-2.9-1.1-3-1.7-6-2.8-9.3-3.5-1.6-0.4-3.1-0.8-4.8-0.9-4.1-0.3-8.2 0.2-12.1 1.4-0.7 0.2-1.5 0-2.2 0.3l-340 204c-13.2 5-22 17.7-22 31.8v680.1c0 11.2 5.5 21.6 14.6 28 5.7 4 12.5 6 19.4 6 4 0 8.1-0.7 12-2.2l319.5-196.3L556 1011.9c0.9 0.9 2 1.2 3 2 0.7 0.6 1 1.4 1.7 1.9s1.6 0.3 2.3 0.7c5.3 3.2 11.1 5.3 17.1 5.3 4 0 8.1-0.7 12-2.2l408-204c13.2-5 22-17.7 22-31.9v-680c-0.1-11.1-5.6-21.5-14.7-27.9z m-597.4 42l136 204v584l-136-204v-584zM70 263.3L342 84.8v607.5L70 870.8V263.3z m884 497L614 938.8V331.3l340-178.5v607.5z" p-id="4100"></path></svg>