<svg t="1597403749142" class="icon" viewBox="0 0 1024 1024" version="1.1" xmlns="http://www.w3.org/2000/svg" p-id="8323" width="200" height="200"><path d="M60.224 128v128H963.84V128H60.16zM53.888 64h916.224c29.76 0 53.888 25.6 53.888 57.28v141.44c0 31.616-24.128 57.28-53.888 57.28H53.888C24.128 320 0 294.4 0 262.72V121.28C0 89.6 24.128 64 53.888 64z" p-id="8324"></path><path d="M768 128l128 0 0 128-128 0 0-128Z" p-id="8325"></path><path d="M60.224 448v128H963.84V448H60.16zM53.888 384h916.224c29.76 0 53.888 25.6 53.888 57.28v141.44c0 31.616-24.128 57.28-53.888 57.28H53.888C24.128 640 0 614.4 0 582.72v-141.44C0 409.6 24.128 384 53.888 384z" p-id="8326"></path><path d="M768 448l128 0 0 128-128 0 0-128Z" p-id="8327"></path><path d="M60.224 896H963.84v-128H60.16v128z m-6.336-192h916.224c29.76 0 53.888 25.6 53.888 57.28v141.44c0 31.616-24.128 57.28-53.888 57.28H53.888C24.128 960 0 934.4 0 902.72v-141.44C0 729.6 24.128 704 53.888 704z" p-id="8328"></path><path d="M768 768l128 0 0 128-128 0 0-128Z" p-id="8329"></path></svg>